<svg aria-hidden="true" style="position: absolute; width: 0; height: 0; overflow: hidden;" version="1.1" xmlns="http://www.w3.org/2000/svg" xmlns:xlink="http://www.w3.org/1999/xlink">
<defs>
<symbol id="icon-logo" viewBox="0 0 259 32">
<path d="M16.114 31.913c-2.296 0-4.422-0.392-6.378-1.175-1.956-0.813-3.671-1.93-5.145-3.353-1.446-1.451-2.579-3.149-3.401-5.094-0.794-1.945-1.19-4.049-1.19-6.313 0-2.293 0.397-4.397 1.19-6.313 0.822-1.945 1.956-3.628 3.401-5.050 1.474-1.422 3.175-2.54 5.102-3.352 1.956-0.813 4.068-1.219 6.335-1.219 2.381 0 4.521 0.392 6.42 1.175 1.899 0.755 3.572 1.814 5.017 3.178l-5.102 5.224c-0.709-0.813-1.587-1.451-2.636-1.916s-2.282-0.697-3.699-0.697c-1.219 0-2.338 0.203-3.359 0.61-0.992 0.406-1.857 1.016-2.594 1.829-0.737 0.784-1.318 1.727-1.743 2.83-0.397 1.103-0.595 2.337-0.595 3.701s0.198 2.598 0.595 3.701c0.425 1.103 1.006 2.061 1.743 2.873 0.737 0.784 1.601 1.393 2.594 1.829 1.020 0.406 2.14 0.61 3.359 0.61 1.417 0 2.665-0.218 3.742-0.653 1.077-0.464 1.998-1.118 2.764-1.959l5.102 5.225c-1.474 1.364-3.146 2.424-5.017 3.178-1.842 0.755-4.011 1.132-6.505 1.132z"></path>
<path d="M27.969 31.434l11.692-30.868h7.356l11.565 30.868h-7.951l-8.716-25.948h2.764l-8.929 25.948h-7.781z"></path>
<path d="M61.404 31.434v-30.868h7.611v30.868h-7.611zM67.441 31.434v-6.705h14.541v6.705h-14.541z"></path>
<path d="M85.528 31.434v-30.868h7.611v30.868h-7.611z"></path>
<path d="M98.482 31.434v-30.868h7.611v30.868h-7.611zM104.52 19.897v-6.574h14.924v6.574h-14.924zM104.52 7.14v-6.574h15.604v6.574h-15.604z"></path>
<path d="M138.438 32c-2.324 0-4.464-0.406-6.42-1.219s-3.671-1.945-5.145-3.396c-1.446-1.451-2.579-3.149-3.402-5.094-0.822-1.974-1.233-4.093-1.233-6.357s0.397-4.354 1.19-6.269c0.822-1.945 1.956-3.643 3.402-5.094s3.146-2.569 5.102-3.352c1.956-0.813 4.096-1.219 6.42-1.219s4.464 0.406 6.421 1.219c1.955 0.784 3.657 1.901 5.102 3.352s2.565 3.149 3.359 5.094c0.821 1.945 1.233 4.049 1.233 6.313s-0.411 4.368-1.233 6.313c-0.794 1.945-1.913 3.657-3.359 5.137-1.446 1.451-3.147 2.583-5.102 3.396-1.928 0.784-4.039 1.176-6.336 1.176zM138.353 25.034c1.701 0 3.175-0.377 4.422-1.132s2.21-1.814 2.892-3.178c0.68-1.364 1.020-2.961 1.020-4.789 0-1.335-0.199-2.554-0.595-3.657-0.369-1.103-0.922-2.046-1.659-2.83-0.737-0.813-1.616-1.437-2.636-1.872s-2.169-0.653-3.444-0.653c-1.701 0-3.175 0.377-4.422 1.132-1.247 0.726-2.211 1.771-2.891 3.135s-1.020 2.946-1.020 4.745c0 1.393 0.184 2.656 0.553 3.788 0.397 1.103 0.964 2.061 1.701 2.873 0.737 0.784 1.616 1.393 2.636 1.828 1.020 0.406 2.169 0.61 3.444 0.61z"></path>
<path d="M164.311 18.939v-5.573h5.74c1.246 0 2.197-0.305 2.848-0.914 0.681-0.639 1.021-1.495 1.021-2.569 0-1.045-0.34-1.887-1.021-2.525-0.651-0.668-1.602-1.001-2.848-1.001h-5.74v-5.79h6.804c2.040 0 3.825 0.392 5.356 1.175 1.559 0.784 2.778 1.858 3.657 3.222s1.318 2.961 1.318 4.789c0 1.829-0.454 3.439-1.361 4.833-0.879 1.364-2.112 2.438-3.7 3.222-1.588 0.755-3.444 1.132-5.568 1.132h-6.507zM158.274 31.434v-30.868h7.611v30.868h-7.611zM174.601 31.434l-8.759-13.235 6.845-1.698 10.714 14.933h-8.8z"></path>
<path d="M185.886 31.434v-30.868h5.314l2.296 6.313v24.555h-7.61zM206.677 31.434l-17.603-22.901 2.126-7.967 17.646 22.901-2.168 7.967zM206.677 31.434l-1.957-6.487v-24.381h7.611v30.868h-5.655z"></path>
<path d="M217.69 31.434v-30.868h7.611v30.868h-7.611z"></path>
<path d="M228.434 31.434l11.692-30.868h7.355l11.566 30.868h-7.95l-8.718-25.948h2.764l-8.928 25.948h-7.782z"></path>
</symbol>
<symbol id="icon-search" viewBox="0 0 24 24">
<path d="M16.041 15.856c-0.034 0.026-0.067 0.055-0.099 0.087s-0.060 0.064-0.087 0.099c-1.258 1.213-2.969 1.958-4.855 1.958-1.933 0-3.682-0.782-4.95-2.050s-2.050-3.017-2.050-4.95 0.782-3.682 2.050-4.95 3.017-2.050 4.95-2.050 3.682 0.782 4.95 2.050 2.050 3.017 2.050 4.95c0 1.886-0.745 3.597-1.959 4.856zM21.707 20.293l-3.675-3.675c1.231-1.54 1.968-3.493 1.968-5.618 0-2.485-1.008-4.736-2.636-6.364s-3.879-2.636-6.364-2.636-4.736 1.008-6.364 2.636-2.636 3.879-2.636 6.364 1.008 4.736 2.636 6.364 3.879 2.636 6.364 2.636c2.125 0 4.078-0.737 5.618-1.968l3.675 3.675c0.391 0.391 1.024 0.391 1.414 0s0.391-1.024 0-1.414z"></path>
</symbol>
<symbol id="icon-arrow-up-right" viewBox="0 0 24 24">
<path d="M7 8h7.586l-8.293 8.293c-0.391 0.391-0.391 1.024 0 1.414s1.024 0.391 1.414 0l8.293-8.293v7.586c0 0.552 0.448 1 1 1s1-0.448 1-1v-10c0-0.136-0.027-0.265-0.076-0.383s-0.121-0.228-0.216-0.323c-0.001-0.001-0.001-0.001-0.002-0.002-0.092-0.092-0.202-0.166-0.323-0.216-0.118-0.049-0.247-0.076-0.383-0.076h-10c-0.552 0-1 0.448-1 1s0.448 1 1 1z"></path>
</symbol>
<symbol id="icon-chevron-left" viewBox="0 0 24 24">
<path d="M15.707 17.293l-5.293-5.293 5.293-5.293c0.391-0.391 0.391-1.024 0-1.414s-1.024-0.391-1.414 0l-6 6c-0.391 0.391-0.391 1.024 0 1.414l6 6c0.391 0.391 1.024 0.391 1.414 0s0.391-1.024 0-1.414z"></path>
</symbol>
<symbol id="icon-chevron-right" viewBox="0 0 24 24">
<path d="M9.707 18.707l6-6c0.391-0.391 0.391-1.024 0-1.414l-6-6c-0.391-0.391-1.024-0.391-1.414 0s-0.391 1.024 0 1.414l5.293 5.293-5.293 5.293c-0.391 0.391-0.391 1.024 0 1.414s1.024 0.391 1.414 0z"></path>
</symbol>
<symbol id="icon-shopping-cart" viewBox="0 0 24 24">
<path d="M11 21c0-0.552-0.225-1.053-0.586-1.414s-0.862-0.586-1.414-0.586-1.053 0.225-1.414 0.586-0.586 0.862-0.586 1.414 0.225 1.053 0.586 1.414 0.862 0.586 1.414 0.586 1.053-0.225 1.414-0.586 0.586-0.862 0.586-1.414zM22 21c0-0.552-0.225-1.053-0.586-1.414s-0.862-0.586-1.414-0.586-1.053 0.225-1.414 0.586-0.586 0.862-0.586 1.414 0.225 1.053 0.586 1.414 0.862 0.586 1.414 0.586 1.053-0.225 1.414-0.586 0.586-0.862 0.586-1.414zM7.221 7h14.57l-1.371 7.191c-0.046 0.228-0.166 0.425-0.332 0.568-0.18 0.156-0.413 0.246-0.688 0.241h-9.734c-0.232 0.003-0.451-0.071-0.626-0.203-0.19-0.143-0.329-0.351-0.379-0.603zM1 2h3.18l0.848 4.239c0.108 0.437 0.502 0.761 0.972 0.761h1.221l-0.4-2h-0.821c-0.552 0-1 0.448-1 1 0 0.053 0.004 0.105 0.012 0.155 0.004 0.028 0.010 0.057 0.017 0.084l1.671 8.347c0.149 0.751 0.57 1.383 1.14 1.811 0.521 0.392 1.17 0.613 1.854 0.603h9.706c0.748 0.015 1.455-0.261 1.995-0.727 0.494-0.426 0.848-1.013 0.985-1.683l1.602-8.402c0.103-0.543-0.252-1.066-0.795-1.17-0.065-0.013-0.13-0.019-0.187-0.018h-16.18l-0.84-4.196c-0.094-0.462-0.497-0.804-0.98-0.804h-4c-0.552 0-1 0.448-1 1s0.448 1 1 1z"></path>
</symbol>
<symbol id="icon-chevron-down" viewBox="0 0 24 24">
<path d="M5.293 9.707l6 6c0.391 0.391 1.024 0.391 1.414 0l6-6c0.391-0.391 0.391-1.024 0-1.414s-1.024-0.391-1.414 0l-5.293 5.293-5.293-5.293c-0.391-0.391-1.024-0.391-1.414 0s-0.391 1.024 0 1.414z"></path>
</symbol>
</defs>
</svg>
